<svg xmlns="http://www.w3.org/2000/svg" width="1040" height="650" viewBox="0 0 1040 650" role="img" aria-labelledby="title desc"><title id="title">전체 시스템과 신뢰 경계</title><desc id="desc">노트북 승인 도구, 보드 Linux CA와 libteec·TEE 드라이버, OP-TEE TA, tee-supplicant와 REE FS의 역할.</desc><rect width="100%" height="100%" fill="#f6f4ef"/><rect x="15" y="18" width="270" height="610" rx="12" fill="#e7f2ec" stroke="#ccd9d2"/><text x="35" y="51" font-family="system-ui,Malgun Gothic,sans-serif" font-size="22" fill="#102e32" font-weight="700">노트북 / 승인자</text><rect x="310" y="18" width="715" height="610" rx="12" fill="#eef0eb" stroke="#ccd9d2"/><text x="332" y="51" font-family="system-ui,Malgun Gothic,sans-serif" font-size="22" fill="#102e32" font-weight="700">STM32MP157F-DK2 / 실물 보드</text><rect x="327" y="75" width="320" height="535" rx="12" fill="#ffffff" stroke="#ccd9d2"/><text x="345" y="105" font-family="system-ui,Malgun Gothic,sans-serif" font-size="20" fill="#102e32" font-weight="700">Normal World · Linux</text><rect x="710" y="75" width="298" height="535" rx="12" fill="#e7f2ec" stroke="#ccd9d2"/><text x="728" y="105" font-family="system-ui,Malgun Gothic,sans-serif" font-size="20" fill="#102e32" font-weight="700">Secure World · OP-TEE</text><rect x="34" y="155" width="232" height="145" rx="12" fill="#ffffff" stroke="#ccd9d2"/><text x="52" y="186" font-family="system-ui,Malgun Gothic,sans-serif" font-size="21" fill="#102e32" font-weight="700">승인 도구</text><text x="52" y="215" font-family="system-ui,Malgun Gothic,sans-serif" font-size="17" fill="#536a6d" font-weight="400">원문·대상 키 확인</text><text x="52" y="240" font-family="system-ui,Malgun Gothic,sans-serif" font-size="17" fill="#536a6d" font-weight="400">사람의 APPROVE</text><text x="52" y="265" font-family="system-ui,Malgun Gothic,sans-serif" font-size="17" fill="#536a6d" font-weight="400">요청 전체에 서명</text><rect x="34" y="354" width="232" height="115" rx="12" fill="#ffffff" stroke="#ccd9d2"/><text x="52" y="385" font-family="system-ui,Malgun Gothic,sans-serif" font-size="21" fill="#102e32" font-weight="700">승인 개인키</text><text x="52" y="414" font-family="system-ui,Malgun Gothic,sans-serif" font-size="17" fill="#536a6d" font-weight="400">암호화 PEM</text><text x="52" y="439" font-family="system-ui,Malgun Gothic,sans-serif" font-size="17" fill="#536a6d" font-weight="400">노트북에만 보관</text><line x1="150" y1="354" x2="150" y2="303" stroke="#176650" stroke-width="2"/><polygon points="150,303 154.3496553411123,312.0044710235268 145.6503446588877,312.0044710235268" fill="#176650"/><rect x="345" y="155" width="282" height="116" rx="12" fill="#ffffff" stroke="#ccd9d2"/><text x="363" y="186" font-family="system-ui,Malgun Gothic,sans-serif" font-size="21" fill="#102e32" font-weight="700">CA · portfolio-hello</text><text x="363" y="215" font-family="system-ui,Malgun Gothic,sans-serif" font-size="17" fill="#536a6d" font-weight="400">요청 파일 생성 / 전달</text><text x="363" y="240" font-family="system-ui,Malgun Gothic,sans-serif" font-size="17" fill="#536a6d" font-weight="400">TA 데이터 서명 검증</text><line x1="270" y1="180" x2="342" y2="180" stroke="#176650" stroke-width="2"/><polygon points="342,180 332.9955289764732,184.3496553411123 332.9955289764732,175.6503446588877" fill="#176650"/><text x="281" y="165" font-family="system-ui,Malgun Gothic,sans-serif" font-size="14" fill="#102e32" font-weight="400">승인</text><line x1="342" y1="235" x2="270" y2="235" stroke="#176650" stroke-width="2"/><polygon points="270,235 279.0044710235268,230.6503446588877 279.0044710235268,239.3496553411123" fill="#176650"/><text x="281" y="258" font-family="system-ui,Malgun Gothic,sans-serif" font-size="14" fill="#102e32" font-weight="400">요청</text><rect x="345" y="306" width="282" height="76" rx="12" fill="#ffffff" stroke="#ccd9d2"/><text x="363" y="337" font-family="system-ui,Malgun Gothic,sans-serif" font-size="21" fill="#102e32" font-weight="700">libteec → TEE 드라이버</text><line x1="480" y1="274" x2="480" y2="302" stroke="#176650" stroke-width="2"/><polygon points="480,302 475.6503446588877,292.9955289764732 484.3496553411123,292.9955289764732" fill="#176650"/><rect x="729" y="155" width="260" height="154" rx="12" fill="#102e32" stroke="#ccd9d2"/><text x="747" y="186" font-family="system-ui,Malgun Gothic,sans-serif" font-size="21" fill="#ffffff" font-weight="700">TA · 승인 정책</text><text x="747" y="215" font-family="system-ui,Malgun Gothic,sans-serif" font-size="17" fill="#dceae5" font-weight="400">승인 공개키 고정</text><text x="747" y="240" font-family="system-ui,Malgun Gothic,sans-serif" font-size="17" fill="#dceae5" font-weight="400">해시·챌린지: 세션 RAM</text><text x="747" y="265" font-family="system-ui,Malgun Gothic,sans-serif" font-size="17" fill="#dceae5" font-weight="400">데이터 개인키 사용</text><rect x="729" y="348" width="260" height="83" rx="12" fill="#102e32" stroke="#ccd9d2"/><text x="747" y="379" font-family="system-ui,Malgun Gothic,sans-serif" font-size="21" fill="#ffffff" font-weight="700">OP-TEE OS</text><text x="747" y="408" font-family="system-ui,Malgun Gothic,sans-serif" font-size="17" fill="#dceae5" font-weight="400">TA 실행 · 저장소 보호</text><line x1="630" y1="343" x2="725" y2="390" stroke="#176650" stroke-width="2"/><polygon points="725,390 715.0004444538181,389.9057191492296 718.8580293216882,382.10847313970504" fill="#176650"/><text x="650" y="338" font-family="system-ui,Malgun Gothic,sans-serif" font-size="16" fill="#102e32" font-weight="400">호출</text><line x1="850" y1="345" x2="850" y2="314" stroke="#176650" stroke-width="2"/><polygon points="850,314 854.3496553411123,323.0044710235268 845.6503446588877,323.0044710235268" fill="#176650"/><rect x="345" y="442" width="282" height="68" rx="12" fill="#ffffff" stroke="#ccd9d2"/><text x="363" y="473" font-family="system-ui,Malgun Gothic,sans-serif" font-size="21" fill="#102e32" font-weight="700">tee-supplicant</text><rect x="345" y="544" width="282" height="48" rx="12" fill="#ffffff" stroke="#ccd9d2"/><text x="363" y="575" font-family="system-ui,Malgun Gothic,sans-serif" font-size="21" fill="#102e32" font-weight="700">/var/lib/tee · ext4</text><line x1="729" y1="414" x2="632" y2="474" stroke="#9a4b18" stroke-width="2" stroke-dasharray="7 5"/><polygon points="632,474 637.3697217280578,465.5640004407762 641.9460180173459,472.96234610845863" fill="#9a4b18"/><text x="650" y="456" font-family="system-ui,Malgun Gothic,sans-serif" font-size="14" fill="#9a4b18" font-weight="400">저장 RPC</text><line x1="480" y1="512" x2="480" y2="540" stroke="#9a4b18" stroke-width="2"/><polygon points="480,540 475.6503446588877,530.9955289764732 484.3496553411123,530.9955289764732" fill="#9a4b18"/><text x="744" y="487" font-family="system-ui,Malgun Gothic,sans-serif" font-size="16" fill="#102e32" font-weight="400">REE에는 보호된 객체 저장</text><text x="744" y="521" font-family="system-ui,Malgun Gothic,sans-serif" font-size="17" fill="#176650" font-weight="700">개인키 반환 API 없음</text><text x="744" y="551" font-family="system-ui,Malgun Gothic,sans-serif" font-size="16" fill="#9a4b18" font-weight="400">롤백 방지는 미검증</text><text x="35" y="546" font-family="system-ui,Malgun Gothic,sans-serif" font-size="16" fill="#102e32" font-weight="400">실선: 요청/호출</text><text x="35" y="579" font-family="system-ui,Malgun Gothic,sans-serif" font-size="16" fill="#102e32" font-weight="400">점선: 저장소 지원 경로</text></svg>